<mxfile host="app.diagrams.net" agent="Mozilla/5.0 (Macintosh; Intel Mac OS X 10_15_7) AppleWebKit/537.36 (KHTML, like Gecko) Chrome/132.0.0.0 Safari/537.36" version="26.1.0">
  <diagram name="第 1 页" id="quGpILhEKU4phmLm44zH">
    <mxGraphModel dx="1020" dy="656" grid="0" gridSize="10" guides="1" tooltips="1" connect="1" arrows="1" fold="1" page="0" pageScale="1" pageWidth="827" pageHeight="1169" background="none" math="0" shadow="0">
      <root>
        <mxCell id="0" />
        <mxCell id="1" parent="0" />
        <mxCell id="Gd4i32y8C69SqzyXkwG3-1" value="Hotfix release" style="swimlane;childLayout=stackLayout;resizeParent=1;resizeParentMax=0;startSize=20;html=1;swimlaneFillColor=default;" vertex="1" parent="1">
          <mxGeometry x="140" y="174" width="480" height="549" as="geometry" />
        </mxCell>
        <mxCell id="Gd4i32y8C69SqzyXkwG3-2" value="PM/BA" style="swimlane;startSize=20;html=1;" vertex="1" parent="Gd4i32y8C69SqzyXkwG3-1">
          <mxGeometry y="20" width="120" height="529" as="geometry" />
        </mxCell>
        <mxCell id="Gd4i32y8C69SqzyXkwG3-5" value="Create JIRA" style="rounded=1;whiteSpace=wrap;html=1;" vertex="1" parent="Gd4i32y8C69SqzyXkwG3-2">
          <mxGeometry x="20" y="105" width="80" height="30" as="geometry" />
        </mxCell>
        <mxCell id="Gd4i32y8C69SqzyXkwG3-7" style="edgeStyle=orthogonalEdgeStyle;rounded=0;orthogonalLoop=1;jettySize=auto;html=1;entryX=0.5;entryY=0;entryDx=0;entryDy=0;" edge="1" parent="Gd4i32y8C69SqzyXkwG3-2" source="Gd4i32y8C69SqzyXkwG3-6" target="Gd4i32y8C69SqzyXkwG3-5">
          <mxGeometry relative="1" as="geometry" />
        </mxCell>
        <mxCell id="Gd4i32y8C69SqzyXkwG3-6" value="Start" style="ellipse;whiteSpace=wrap;html=1;aspect=fixed;" vertex="1" parent="Gd4i32y8C69SqzyXkwG3-2">
          <mxGeometry x="40" y="40" width="40" height="40" as="geometry" />
        </mxCell>
        <mxCell id="Gd4i32y8C69SqzyXkwG3-3" value="Developer" style="swimlane;startSize=20;html=1;" vertex="1" parent="Gd4i32y8C69SqzyXkwG3-1">
          <mxGeometry x="120" y="20" width="120" height="529" as="geometry" />
        </mxCell>
        <mxCell id="Gd4i32y8C69SqzyXkwG3-13" style="edgeStyle=orthogonalEdgeStyle;rounded=0;orthogonalLoop=1;jettySize=auto;html=1;entryX=0.5;entryY=0;entryDx=0;entryDy=0;" edge="1" parent="Gd4i32y8C69SqzyXkwG3-3" source="Gd4i32y8C69SqzyXkwG3-8" target="Gd4i32y8C69SqzyXkwG3-10">
          <mxGeometry relative="1" as="geometry" />
        </mxCell>
        <mxCell id="Gd4i32y8C69SqzyXkwG3-8" value="Create hotfix branch" style="rounded=1;whiteSpace=wrap;html=1;" vertex="1" parent="Gd4i32y8C69SqzyXkwG3-3">
          <mxGeometry x="20" y="105" width="80" height="30" as="geometry" />
        </mxCell>
        <mxCell id="Gd4i32y8C69SqzyXkwG3-14" style="edgeStyle=orthogonalEdgeStyle;rounded=0;orthogonalLoop=1;jettySize=auto;html=1;" edge="1" parent="Gd4i32y8C69SqzyXkwG3-3" source="Gd4i32y8C69SqzyXkwG3-10" target="Gd4i32y8C69SqzyXkwG3-11">
          <mxGeometry relative="1" as="geometry" />
        </mxCell>
        <mxCell id="Gd4i32y8C69SqzyXkwG3-10" value="create new hotfix service version" style="rounded=1;whiteSpace=wrap;html=1;" vertex="1" parent="Gd4i32y8C69SqzyXkwG3-3">
          <mxGeometry x="20" y="161" width="80" height="44" as="geometry" />
        </mxCell>
        <mxCell id="Gd4i32y8C69SqzyXkwG3-16" value="" style="edgeStyle=orthogonalEdgeStyle;rounded=0;orthogonalLoop=1;jettySize=auto;html=1;" edge="1" parent="Gd4i32y8C69SqzyXkwG3-3" source="Gd4i32y8C69SqzyXkwG3-11" target="Gd4i32y8C69SqzyXkwG3-15">
          <mxGeometry relative="1" as="geometry" />
        </mxCell>
        <mxCell id="Gd4i32y8C69SqzyXkwG3-11" value="fix issue" style="rounded=1;whiteSpace=wrap;html=1;" vertex="1" parent="Gd4i32y8C69SqzyXkwG3-3">
          <mxGeometry x="20" y="227" width="80" height="30" as="geometry" />
        </mxCell>
        <mxCell id="Gd4i32y8C69SqzyXkwG3-15" value="unit test" style="rounded=1;whiteSpace=wrap;html=1;" vertex="1" parent="Gd4i32y8C69SqzyXkwG3-3">
          <mxGeometry x="20" y="276" width="80" height="30" as="geometry" />
        </mxCell>
        <mxCell id="Gd4i32y8C69SqzyXkwG3-30" value="" style="edgeStyle=orthogonalEdgeStyle;rounded=0;orthogonalLoop=1;jettySize=auto;html=1;" edge="1" parent="Gd4i32y8C69SqzyXkwG3-3" source="Gd4i32y8C69SqzyXkwG3-23" target="Gd4i32y8C69SqzyXkwG3-29">
          <mxGeometry relative="1" as="geometry" />
        </mxCell>
        <mxCell id="Gd4i32y8C69SqzyXkwG3-23" value="testing is sit hotfix env" style="rounded=1;whiteSpace=wrap;html=1;" vertex="1" parent="Gd4i32y8C69SqzyXkwG3-3">
          <mxGeometry x="20" y="328" width="80" height="30" as="geometry" />
        </mxCell>
        <mxCell id="Gd4i32y8C69SqzyXkwG3-29" value="pass testing?" style="rhombus;whiteSpace=wrap;html=1;" vertex="1" parent="Gd4i32y8C69SqzyXkwG3-3">
          <mxGeometry x="30" y="383" width="60" height="36" as="geometry" />
        </mxCell>
        <mxCell id="Gd4i32y8C69SqzyXkwG3-4" value="DevOps" style="swimlane;startSize=20;html=1;" vertex="1" parent="Gd4i32y8C69SqzyXkwG3-1">
          <mxGeometry x="240" y="20" width="120" height="529" as="geometry" />
        </mxCell>
        <mxCell id="Gd4i32y8C69SqzyXkwG3-22" value="deploy to sit hotfix env" style="rounded=1;whiteSpace=wrap;html=1;" vertex="1" parent="Gd4i32y8C69SqzyXkwG3-4">
          <mxGeometry x="20" y="105" width="80" height="30" as="geometry" />
        </mxCell>
        <mxCell id="Gd4i32y8C69SqzyXkwG3-25" value="deploy to uat hotfix env" style="rounded=1;whiteSpace=wrap;html=1;" vertex="1" parent="Gd4i32y8C69SqzyXkwG3-4">
          <mxGeometry x="20" y="328" width="80" height="30" as="geometry" />
        </mxCell>
        <mxCell id="Gd4i32y8C69SqzyXkwG3-34" value="deploy to pre-prod env" style="rounded=1;whiteSpace=wrap;html=1;" vertex="1" parent="Gd4i32y8C69SqzyXkwG3-4">
          <mxGeometry x="20" y="388" width="80" height="30" as="geometry" />
        </mxCell>
        <mxCell id="Gd4i32y8C69SqzyXkwG3-40" value="deploy to pre-prod env" style="rounded=1;whiteSpace=wrap;html=1;" vertex="1" parent="Gd4i32y8C69SqzyXkwG3-4">
          <mxGeometry x="20" y="486" width="80" height="30" as="geometry" />
        </mxCell>
        <mxCell id="Gd4i32y8C69SqzyXkwG3-21" value="Business User" style="swimlane;startSize=20;html=1;" vertex="1" parent="Gd4i32y8C69SqzyXkwG3-1">
          <mxGeometry x="360" y="20" width="120" height="529" as="geometry" />
        </mxCell>
        <mxCell id="Gd4i32y8C69SqzyXkwG3-33" value="" style="edgeStyle=orthogonalEdgeStyle;rounded=0;orthogonalLoop=1;jettySize=auto;html=1;" edge="1" parent="Gd4i32y8C69SqzyXkwG3-21" source="Gd4i32y8C69SqzyXkwG3-27" target="Gd4i32y8C69SqzyXkwG3-32">
          <mxGeometry relative="1" as="geometry" />
        </mxCell>
        <mxCell id="Gd4i32y8C69SqzyXkwG3-27" value="testing in uat hotfix env" style="rounded=1;whiteSpace=wrap;html=1;" vertex="1" parent="Gd4i32y8C69SqzyXkwG3-21">
          <mxGeometry x="20" y="328" width="80" height="30" as="geometry" />
        </mxCell>
        <mxCell id="Gd4i32y8C69SqzyXkwG3-32" value="pass testing?" style="rhombus;whiteSpace=wrap;html=1;" vertex="1" parent="Gd4i32y8C69SqzyXkwG3-21">
          <mxGeometry x="30" y="385" width="60" height="36" as="geometry" />
        </mxCell>
        <mxCell id="Gd4i32y8C69SqzyXkwG3-39" style="edgeStyle=orthogonalEdgeStyle;rounded=0;orthogonalLoop=1;jettySize=auto;html=1;entryX=0.5;entryY=0;entryDx=0;entryDy=0;" edge="1" parent="Gd4i32y8C69SqzyXkwG3-21" source="Gd4i32y8C69SqzyXkwG3-36" target="Gd4i32y8C69SqzyXkwG3-38">
          <mxGeometry relative="1" as="geometry" />
        </mxCell>
        <mxCell id="Gd4i32y8C69SqzyXkwG3-36" value="testing in pre-prod env" style="rounded=1;whiteSpace=wrap;html=1;" vertex="1" parent="Gd4i32y8C69SqzyXkwG3-21">
          <mxGeometry x="20" y="438" width="80" height="30" as="geometry" />
        </mxCell>
        <mxCell id="Gd4i32y8C69SqzyXkwG3-38" value="pass testing?" style="rhombus;whiteSpace=wrap;html=1;" vertex="1" parent="Gd4i32y8C69SqzyXkwG3-21">
          <mxGeometry x="30" y="483" width="60" height="36" as="geometry" />
        </mxCell>
        <mxCell id="Gd4i32y8C69SqzyXkwG3-9" style="edgeStyle=orthogonalEdgeStyle;rounded=0;orthogonalLoop=1;jettySize=auto;html=1;" edge="1" parent="Gd4i32y8C69SqzyXkwG3-1" source="Gd4i32y8C69SqzyXkwG3-5" target="Gd4i32y8C69SqzyXkwG3-8">
          <mxGeometry relative="1" as="geometry" />
        </mxCell>
        <mxCell id="Gd4i32y8C69SqzyXkwG3-24" style="edgeStyle=orthogonalEdgeStyle;rounded=0;orthogonalLoop=1;jettySize=auto;html=1;entryX=0;entryY=0.5;entryDx=0;entryDy=0;" edge="1" parent="Gd4i32y8C69SqzyXkwG3-1" source="Gd4i32y8C69SqzyXkwG3-15" target="Gd4i32y8C69SqzyXkwG3-22">
          <mxGeometry relative="1" as="geometry">
            <Array as="points">
              <mxPoint x="250" y="320" />
              <mxPoint x="250" y="140" />
            </Array>
          </mxGeometry>
        </mxCell>
        <mxCell id="Gd4i32y8C69SqzyXkwG3-28" style="edgeStyle=orthogonalEdgeStyle;rounded=0;orthogonalLoop=1;jettySize=auto;html=1;" edge="1" parent="Gd4i32y8C69SqzyXkwG3-1" source="Gd4i32y8C69SqzyXkwG3-25" target="Gd4i32y8C69SqzyXkwG3-27">
          <mxGeometry relative="1" as="geometry" />
        </mxCell>
        <mxCell id="Gd4i32y8C69SqzyXkwG3-31" style="edgeStyle=orthogonalEdgeStyle;rounded=0;orthogonalLoop=1;jettySize=auto;html=1;entryX=0;entryY=0.5;entryDx=0;entryDy=0;" edge="1" parent="Gd4i32y8C69SqzyXkwG3-1" source="Gd4i32y8C69SqzyXkwG3-29" target="Gd4i32y8C69SqzyXkwG3-25">
          <mxGeometry relative="1" as="geometry" />
        </mxCell>
        <mxCell id="Gd4i32y8C69SqzyXkwG3-35" style="edgeStyle=orthogonalEdgeStyle;rounded=0;orthogonalLoop=1;jettySize=auto;html=1;entryX=1;entryY=0.5;entryDx=0;entryDy=0;" edge="1" parent="Gd4i32y8C69SqzyXkwG3-1" source="Gd4i32y8C69SqzyXkwG3-32" target="Gd4i32y8C69SqzyXkwG3-34">
          <mxGeometry relative="1" as="geometry" />
        </mxCell>
        <mxCell id="Gd4i32y8C69SqzyXkwG3-37" style="edgeStyle=orthogonalEdgeStyle;rounded=0;orthogonalLoop=1;jettySize=auto;html=1;entryX=0;entryY=0.5;entryDx=0;entryDy=0;" edge="1" parent="Gd4i32y8C69SqzyXkwG3-1" source="Gd4i32y8C69SqzyXkwG3-34" target="Gd4i32y8C69SqzyXkwG3-36">
          <mxGeometry relative="1" as="geometry">
            <Array as="points">
              <mxPoint x="300" y="473" />
            </Array>
          </mxGeometry>
        </mxCell>
        <mxCell id="Gd4i32y8C69SqzyXkwG3-41" style="edgeStyle=orthogonalEdgeStyle;rounded=0;orthogonalLoop=1;jettySize=auto;html=1;" edge="1" parent="Gd4i32y8C69SqzyXkwG3-1" source="Gd4i32y8C69SqzyXkwG3-38" target="Gd4i32y8C69SqzyXkwG3-40">
          <mxGeometry relative="1" as="geometry" />
        </mxCell>
        <mxCell id="Gd4i32y8C69SqzyXkwG3-42" value=":PM/BA" style="shape=umlLifeline;perimeter=lifelinePerimeter;whiteSpace=wrap;html=1;container=1;dropTarget=0;collapsible=0;recursiveResize=0;outlineConnect=0;portConstraint=eastwest;newEdgeStyle={&quot;curved&quot;:0,&quot;rounded&quot;:0};fillColor=#f5f5f5;fontColor=#333333;strokeColor=#666666;" vertex="1" parent="1">
          <mxGeometry x="150" y="850" width="100" height="450" as="geometry" />
        </mxCell>
        <mxCell id="Gd4i32y8C69SqzyXkwG3-43" value="" style="html=1;points=[[0,0,0,0,5],[0,1,0,0,-5],[1,0,0,0,5],[1,1,0,0,-5]];perimeter=orthogonalPerimeter;outlineConnect=0;targetShapes=umlLifeline;portConstraint=eastwest;newEdgeStyle={&quot;curved&quot;:0,&quot;rounded&quot;:0};" vertex="1" parent="Gd4i32y8C69SqzyXkwG3-42">
          <mxGeometry x="45" y="80" width="10" height="40" as="geometry" />
        </mxCell>
        <mxCell id="Gd4i32y8C69SqzyXkwG3-44" value="1. raise jira" style="html=1;align=left;spacingLeft=2;endArrow=block;rounded=0;edgeStyle=orthogonalEdgeStyle;curved=0;rounded=0;" edge="1" target="Gd4i32y8C69SqzyXkwG3-43" parent="Gd4i32y8C69SqzyXkwG3-42">
          <mxGeometry x="-0.0018" relative="1" as="geometry">
            <mxPoint x="50" y="60" as="sourcePoint" />
            <Array as="points">
              <mxPoint x="80" y="90" />
            </Array>
            <mxPoint as="offset" />
          </mxGeometry>
        </mxCell>
        <mxCell id="Gd4i32y8C69SqzyXkwG3-45" value=":Developer" style="shape=umlLifeline;whiteSpace=wrap;html=1;container=1;dropTarget=0;collapsible=0;recursiveResize=0;outlineConnect=0;portConstraint=eastwest;newEdgeStyle={&quot;curved&quot;:0,&quot;rounded&quot;:0};targetShapes=umlLifeline;participant=label;points=[[0,0,0,0,5],[0,1,0,0,-5],[1,0,0,0,5],[1,1,0,0,-5]];perimeter=rectanglePerimeter;fillColor=#d5e8d4;strokeColor=#82b366;" vertex="1" parent="1">
          <mxGeometry x="281" y="850" width="100" height="450" as="geometry" />
        </mxCell>
        <mxCell id="Gd4i32y8C69SqzyXkwG3-48" value="" style="html=1;points=[[0,0,0,0,5],[0,1,0,0,-5],[1,0,0,0,5],[1,1,0,0,-5]];perimeter=orthogonalPerimeter;outlineConnect=0;targetShapes=umlLifeline;portConstraint=eastwest;newEdgeStyle={&quot;curved&quot;:0,&quot;rounded&quot;:0};" vertex="1" parent="Gd4i32y8C69SqzyXkwG3-45">
          <mxGeometry x="45" y="70" width="10" height="110" as="geometry" />
        </mxCell>
        <mxCell id="Gd4i32y8C69SqzyXkwG3-54" value="" style="html=1;points=[[0,0,0,0,5],[0,1,0,0,-5],[1,0,0,0,5],[1,1,0,0,-5]];perimeter=orthogonalPerimeter;outlineConnect=0;targetShapes=umlLifeline;portConstraint=eastwest;newEdgeStyle={&quot;curved&quot;:0,&quot;rounded&quot;:0};" vertex="1" parent="Gd4i32y8C69SqzyXkwG3-45">
          <mxGeometry x="50" y="134" width="10" height="40" as="geometry" />
        </mxCell>
        <mxCell id="Gd4i32y8C69SqzyXkwG3-55" value="3. fix issue&amp;nbsp;&lt;div&gt;&amp;amp; unit test&lt;/div&gt;" style="html=1;align=left;spacingLeft=2;endArrow=block;rounded=0;edgeStyle=orthogonalEdgeStyle;curved=0;rounded=0;" edge="1" target="Gd4i32y8C69SqzyXkwG3-54" parent="Gd4i32y8C69SqzyXkwG3-45">
          <mxGeometry x="-0.0018" relative="1" as="geometry">
            <mxPoint x="55" y="114" as="sourcePoint" />
            <Array as="points">
              <mxPoint x="85" y="144" />
            </Array>
            <mxPoint as="offset" />
          </mxGeometry>
        </mxCell>
        <mxCell id="Gd4i32y8C69SqzyXkwG3-62" value="" style="html=1;points=[[0,0,0,0,5],[0,1,0,0,-5],[1,0,0,0,5],[1,1,0,0,-5]];perimeter=orthogonalPerimeter;outlineConnect=0;targetShapes=umlLifeline;portConstraint=eastwest;newEdgeStyle={&quot;curved&quot;:0,&quot;rounded&quot;:0};" vertex="1" parent="Gd4i32y8C69SqzyXkwG3-45">
          <mxGeometry x="45" y="189" width="10" height="80" as="geometry" />
        </mxCell>
        <mxCell id="Gd4i32y8C69SqzyXkwG3-63" value="" style="html=1;points=[[0,0,0,0,5],[0,1,0,0,-5],[1,0,0,0,5],[1,1,0,0,-5]];perimeter=orthogonalPerimeter;outlineConnect=0;targetShapes=umlLifeline;portConstraint=eastwest;newEdgeStyle={&quot;curved&quot;:0,&quot;rounded&quot;:0};" vertex="1" parent="Gd4i32y8C69SqzyXkwG3-45">
          <mxGeometry x="50" y="218" width="10" height="40" as="geometry" />
        </mxCell>
        <mxCell id="Gd4i32y8C69SqzyXkwG3-64" value="5. sit testing" style="html=1;align=left;spacingLeft=2;endArrow=block;rounded=0;edgeStyle=orthogonalEdgeStyle;curved=0;rounded=0;" edge="1" target="Gd4i32y8C69SqzyXkwG3-63" parent="Gd4i32y8C69SqzyXkwG3-45">
          <mxGeometry relative="1" as="geometry">
            <mxPoint x="55" y="198" as="sourcePoint" />
            <Array as="points">
              <mxPoint x="85" y="228" />
            </Array>
          </mxGeometry>
        </mxCell>
        <mxCell id="Gd4i32y8C69SqzyXkwG3-49" style="edgeStyle=orthogonalEdgeStyle;rounded=0;orthogonalLoop=1;jettySize=auto;html=1;curved=0;" edge="1" parent="1" source="Gd4i32y8C69SqzyXkwG3-43" target="Gd4i32y8C69SqzyXkwG3-48">
          <mxGeometry relative="1" as="geometry">
            <Array as="points">
              <mxPoint x="320" y="950" />
              <mxPoint x="320" y="950" />
            </Array>
          </mxGeometry>
        </mxCell>
        <mxCell id="Gd4i32y8C69SqzyXkwG3-50" value="2. create hotfix branch" style="edgeLabel;html=1;align=left;verticalAlign=middle;resizable=0;points=[];" vertex="1" connectable="0" parent="Gd4i32y8C69SqzyXkwG3-49">
          <mxGeometry x="-0.564" y="2" relative="1" as="geometry">
            <mxPoint x="-18" y="22" as="offset" />
          </mxGeometry>
        </mxCell>
        <mxCell id="Gd4i32y8C69SqzyXkwG3-56" value=":DevOps" style="shape=umlLifeline;whiteSpace=wrap;html=1;container=1;dropTarget=0;collapsible=0;recursiveResize=0;outlineConnect=0;portConstraint=eastwest;newEdgeStyle={&quot;curved&quot;:0,&quot;rounded&quot;:0};targetShapes=umlLifeline;participant=label;points=[[0,0,0,0,5],[0,1,0,0,-5],[1,0,0,0,5],[1,1,0,0,-5]];perimeter=rectanglePerimeter;fillColor=#dae8fc;strokeColor=#6c8ebf;" vertex="1" parent="1">
          <mxGeometry x="399" y="850" width="100" height="450" as="geometry" />
        </mxCell>
        <mxCell id="Gd4i32y8C69SqzyXkwG3-57" value="" style="html=1;points=[[0,0,0,0,5],[0,1,0,0,-5],[1,0,0,0,5],[1,1,0,0,-5]];perimeter=orthogonalPerimeter;outlineConnect=0;targetShapes=umlLifeline;portConstraint=eastwest;newEdgeStyle={&quot;curved&quot;:0,&quot;rounded&quot;:0};" vertex="1" parent="Gd4i32y8C69SqzyXkwG3-56">
          <mxGeometry x="45" y="70" width="10" height="270" as="geometry" />
        </mxCell>
        <mxCell id="Gd4i32y8C69SqzyXkwG3-73" value="" style="html=1;points=[[0,0,0,0,5],[0,1,0,0,-5],[1,0,0,0,5],[1,1,0,0,-5]];perimeter=orthogonalPerimeter;outlineConnect=0;targetShapes=umlLifeline;portConstraint=eastwest;newEdgeStyle={&quot;curved&quot;:0,&quot;rounded&quot;:0};" vertex="1" parent="Gd4i32y8C69SqzyXkwG3-56">
          <mxGeometry x="50" y="122" width="10" height="40" as="geometry" />
        </mxCell>
        <mxCell id="Gd4i32y8C69SqzyXkwG3-74" value="4. deploy to&amp;nbsp;&lt;div&gt;sit hotfix env&lt;/div&gt;" style="html=1;align=left;spacingLeft=2;endArrow=block;rounded=0;edgeStyle=orthogonalEdgeStyle;curved=0;rounded=0;" edge="1" target="Gd4i32y8C69SqzyXkwG3-73" parent="Gd4i32y8C69SqzyXkwG3-56">
          <mxGeometry x="0.0823" y="5" relative="1" as="geometry">
            <mxPoint x="55" y="102" as="sourcePoint" />
            <Array as="points">
              <mxPoint x="85" y="132" />
            </Array>
            <mxPoint as="offset" />
          </mxGeometry>
        </mxCell>
        <mxCell id="Gd4i32y8C69SqzyXkwG3-75" value="" style="html=1;points=[[0,0,0,0,5],[0,1,0,0,-5],[1,0,0,0,5],[1,1,0,0,-5]];perimeter=orthogonalPerimeter;outlineConnect=0;targetShapes=umlLifeline;portConstraint=eastwest;newEdgeStyle={&quot;curved&quot;:0,&quot;rounded&quot;:0};" vertex="1" parent="Gd4i32y8C69SqzyXkwG3-56">
          <mxGeometry x="50" y="216" width="10" height="40" as="geometry" />
        </mxCell>
        <mxCell id="Gd4i32y8C69SqzyXkwG3-76" value="6. deploy to&lt;div&gt;&amp;nbsp;uat hotfix env&lt;/div&gt;" style="html=1;align=left;spacingLeft=2;endArrow=block;rounded=0;edgeStyle=orthogonalEdgeStyle;curved=0;rounded=0;" edge="1" parent="Gd4i32y8C69SqzyXkwG3-56" target="Gd4i32y8C69SqzyXkwG3-75">
          <mxGeometry x="-0.0588" y="5" relative="1" as="geometry">
            <mxPoint x="55" y="196" as="sourcePoint" />
            <Array as="points">
              <mxPoint x="85" y="226" />
            </Array>
            <mxPoint as="offset" />
          </mxGeometry>
        </mxCell>
        <mxCell id="Gd4i32y8C69SqzyXkwG3-79" value="" style="html=1;points=[[0,0,0,0,5],[0,1,0,0,-5],[1,0,0,0,5],[1,1,0,0,-5]];perimeter=orthogonalPerimeter;outlineConnect=0;targetShapes=umlLifeline;portConstraint=eastwest;newEdgeStyle={&quot;curved&quot;:0,&quot;rounded&quot;:0};" vertex="1" parent="Gd4i32y8C69SqzyXkwG3-56">
          <mxGeometry x="50" y="288" width="10" height="40" as="geometry" />
        </mxCell>
        <mxCell id="Gd4i32y8C69SqzyXkwG3-80" value="9. deploy&amp;nbsp;&lt;div&gt;pre-prod&lt;/div&gt;" style="html=1;align=left;spacingLeft=2;endArrow=block;rounded=0;edgeStyle=orthogonalEdgeStyle;curved=0;rounded=0;" edge="1" parent="Gd4i32y8C69SqzyXkwG3-56" target="Gd4i32y8C69SqzyXkwG3-79">
          <mxGeometry x="-0.0588" y="5" relative="1" as="geometry">
            <mxPoint x="55" y="268" as="sourcePoint" />
            <Array as="points">
              <mxPoint x="85" y="298" />
            </Array>
            <mxPoint as="offset" />
          </mxGeometry>
        </mxCell>
        <mxCell id="Gd4i32y8C69SqzyXkwG3-67" value=":Business User" style="shape=umlLifeline;whiteSpace=wrap;html=1;container=1;dropTarget=0;collapsible=0;recursiveResize=0;outlineConnect=0;portConstraint=eastwest;newEdgeStyle={&quot;curved&quot;:0,&quot;rounded&quot;:0};targetShapes=umlLifeline;participant=label;points=[[0,0,0,0,5],[0,1,0,0,-5],[1,0,0,0,5],[1,1,0,0,-5]];perimeter=rectanglePerimeter;fillColor=#f5f5f5;fontColor=#333333;strokeColor=#666666;" vertex="1" parent="1">
          <mxGeometry x="650" y="850" width="100" height="450" as="geometry" />
        </mxCell>
        <mxCell id="Gd4i32y8C69SqzyXkwG3-68" value="" style="html=1;points=[[0,0,0,0,5],[0,1,0,0,-5],[1,0,0,0,5],[1,1,0,0,-5]];perimeter=orthogonalPerimeter;outlineConnect=0;targetShapes=umlLifeline;portConstraint=eastwest;newEdgeStyle={&quot;curved&quot;:0,&quot;rounded&quot;:0};" vertex="1" parent="Gd4i32y8C69SqzyXkwG3-67">
          <mxGeometry x="45" y="70" width="10" height="260" as="geometry" />
        </mxCell>
        <mxCell id="Gd4i32y8C69SqzyXkwG3-71" value="" style="html=1;points=[[0,0,0,0,5],[0,1,0,0,-5],[1,0,0,0,5],[1,1,0,0,-5]];perimeter=orthogonalPerimeter;outlineConnect=0;targetShapes=umlLifeline;portConstraint=eastwest;newEdgeStyle={&quot;curved&quot;:0,&quot;rounded&quot;:0};" vertex="1" parent="Gd4i32y8C69SqzyXkwG3-67">
          <mxGeometry x="50" y="224" width="10" height="40" as="geometry" />
        </mxCell>
        <mxCell id="Gd4i32y8C69SqzyXkwG3-72" value="7. hotfix testing&amp;nbsp;&lt;div&gt;in uat hotfix env&lt;/div&gt;" style="html=1;align=left;spacingLeft=2;endArrow=block;rounded=0;edgeStyle=orthogonalEdgeStyle;curved=0;rounded=0;" edge="1" target="Gd4i32y8C69SqzyXkwG3-71" parent="Gd4i32y8C69SqzyXkwG3-67">
          <mxGeometry x="0.0084" relative="1" as="geometry">
            <mxPoint x="55" y="204" as="sourcePoint" />
            <Array as="points">
              <mxPoint x="85" y="234" />
            </Array>
            <mxPoint as="offset" />
          </mxGeometry>
        </mxCell>
        <mxCell id="Gd4i32y8C69SqzyXkwG3-81" value="" style="html=1;points=[[0,0,0,0,5],[0,1,0,0,-5],[1,0,0,0,5],[1,1,0,0,-5]];perimeter=orthogonalPerimeter;outlineConnect=0;targetShapes=umlLifeline;portConstraint=eastwest;newEdgeStyle={&quot;curved&quot;:0,&quot;rounded&quot;:0};" vertex="1" parent="Gd4i32y8C69SqzyXkwG3-67">
          <mxGeometry x="50" y="331" width="10" height="40" as="geometry" />
        </mxCell>
        <mxCell id="Gd4i32y8C69SqzyXkwG3-82" value="10. hotfix testing&amp;nbsp;&lt;div&gt;in pre-prod env&lt;/div&gt;" style="html=1;align=left;spacingLeft=2;endArrow=block;rounded=0;edgeStyle=orthogonalEdgeStyle;curved=0;rounded=0;" edge="1" parent="Gd4i32y8C69SqzyXkwG3-67" target="Gd4i32y8C69SqzyXkwG3-81">
          <mxGeometry x="0.0084" relative="1" as="geometry">
            <mxPoint x="55" y="311" as="sourcePoint" />
            <Array as="points">
              <mxPoint x="85" y="341" />
            </Array>
            <mxPoint as="offset" />
          </mxGeometry>
        </mxCell>
        <mxCell id="Gd4i32y8C69SqzyXkwG3-83" value=":GitOps" style="shape=umlLifeline;whiteSpace=wrap;html=1;container=1;dropTarget=0;collapsible=0;recursiveResize=0;outlineConnect=0;portConstraint=eastwest;newEdgeStyle={&quot;curved&quot;:0,&quot;rounded&quot;:0};targetShapes=umlLifeline;participant=label;points=[[0,0,0,0,5],[0,1,0,0,-5],[1,0,0,0,5],[1,1,0,0,-5]];perimeter=rectanglePerimeter;fillColor=#d5e8d4;strokeColor=#82b366;" vertex="1" parent="1">
          <mxGeometry x="517" y="850" width="100" height="460" as="geometry" />
        </mxCell>
        <mxCell id="Gd4i32y8C69SqzyXkwG3-84" value="" style="html=1;points=[[0,0,0,0,5],[0,1,0,0,-5],[1,0,0,0,5],[1,1,0,0,-5]];perimeter=orthogonalPerimeter;outlineConnect=0;targetShapes=umlLifeline;portConstraint=eastwest;newEdgeStyle={&quot;curved&quot;:0,&quot;rounded&quot;:0};" vertex="1" parent="Gd4i32y8C69SqzyXkwG3-83">
          <mxGeometry x="45" y="70" width="10" height="370" as="geometry" />
        </mxCell>
        <mxCell id="Gd4i32y8C69SqzyXkwG3-89" value="" style="html=1;points=[[0,0,0,0,5],[0,1,0,0,-5],[1,0,0,0,5],[1,1,0,0,-5]];perimeter=orthogonalPerimeter;outlineConnect=0;targetShapes=umlLifeline;portConstraint=eastwest;newEdgeStyle={&quot;curved&quot;:0,&quot;rounded&quot;:0};" vertex="1" parent="Gd4i32y8C69SqzyXkwG3-83">
          <mxGeometry x="50" y="297" width="10" height="40" as="geometry" />
        </mxCell>
        <mxCell id="Gd4i32y8C69SqzyXkwG3-90" value="8. merge hotfix&lt;div&gt;branch to&amp;nbsp;&lt;/div&gt;&lt;div&gt;master branch&amp;nbsp;&lt;/div&gt;" style="html=1;align=left;spacingLeft=2;endArrow=block;rounded=0;edgeStyle=orthogonalEdgeStyle;curved=0;rounded=0;" edge="1" parent="Gd4i32y8C69SqzyXkwG3-83" target="Gd4i32y8C69SqzyXkwG3-89">
          <mxGeometry x="-0.0588" y="5" relative="1" as="geometry">
            <mxPoint x="55" y="277" as="sourcePoint" />
            <Array as="points">
              <mxPoint x="85" y="307" />
            </Array>
            <mxPoint as="offset" />
          </mxGeometry>
        </mxCell>
        <mxCell id="Gd4i32y8C69SqzyXkwG3-93" value="" style="html=1;points=[[0,0,0,0,5],[0,1,0,0,-5],[1,0,0,0,5],[1,1,0,0,-5]];perimeter=orthogonalPerimeter;outlineConnect=0;targetShapes=umlLifeline;portConstraint=eastwest;newEdgeStyle={&quot;curved&quot;:0,&quot;rounded&quot;:0};" vertex="1" parent="Gd4i32y8C69SqzyXkwG3-83">
          <mxGeometry x="50" y="371" width="10" height="40" as="geometry" />
        </mxCell>
        <mxCell id="Gd4i32y8C69SqzyXkwG3-94" value="11. merge hotfix&lt;div&gt;branch to&amp;nbsp;&lt;/div&gt;&lt;div&gt;release branch&amp;nbsp;&lt;/div&gt;" style="html=1;align=left;spacingLeft=2;endArrow=block;rounded=0;edgeStyle=orthogonalEdgeStyle;curved=0;rounded=0;" edge="1" parent="Gd4i32y8C69SqzyXkwG3-83" target="Gd4i32y8C69SqzyXkwG3-93">
          <mxGeometry x="-0.0588" y="5" relative="1" as="geometry">
            <mxPoint x="55" y="351" as="sourcePoint" />
            <Array as="points">
              <mxPoint x="85" y="381" />
            </Array>
            <mxPoint as="offset" />
          </mxGeometry>
        </mxCell>
        <mxCell id="Gd4i32y8C69SqzyXkwG3-92" style="edgeStyle=orthogonalEdgeStyle;rounded=0;orthogonalLoop=1;jettySize=auto;html=1;curved=0;" edge="1" parent="1" source="Gd4i32y8C69SqzyXkwG3-54" target="Gd4i32y8C69SqzyXkwG3-57">
          <mxGeometry relative="1" as="geometry">
            <Array as="points">
              <mxPoint x="420" y="1004" />
              <mxPoint x="420" y="1004" />
            </Array>
          </mxGeometry>
        </mxCell>
        <mxCell id="Gd4i32y8C69SqzyXkwG3-95" style="edgeStyle=orthogonalEdgeStyle;rounded=0;orthogonalLoop=1;jettySize=auto;html=1;curved=0;" edge="1" parent="1" source="Gd4i32y8C69SqzyXkwG3-63" target="Gd4i32y8C69SqzyXkwG3-57">
          <mxGeometry relative="1" as="geometry">
            <Array as="points">
              <mxPoint x="370" y="1090" />
              <mxPoint x="370" y="1090" />
            </Array>
          </mxGeometry>
        </mxCell>
        <mxCell id="Gd4i32y8C69SqzyXkwG3-96" style="edgeStyle=orthogonalEdgeStyle;rounded=0;orthogonalLoop=1;jettySize=auto;html=1;curved=0;" edge="1" parent="1" source="Gd4i32y8C69SqzyXkwG3-75" target="Gd4i32y8C69SqzyXkwG3-71">
          <mxGeometry relative="1" as="geometry">
            <Array as="points">
              <mxPoint x="640" y="1086" />
              <mxPoint x="640" y="1086" />
            </Array>
          </mxGeometry>
        </mxCell>
      </root>
    </mxGraphModel>
  </diagram>
</mxfile>
